<svg id="Modelo1" xmlns="http://www.w3.org/2000/svg" xmlns:xlink="http://www.w3.org/1999/xlink" viewBox="0 0 493.33 717.12"><defs><style>.cls-1{fill:url(#Gradiente_sem_nome_33);}.cls-2{fill:#cf8655;}.cls-3{fill:url(#Gradiente_sem_nome_33-2);}.cls-4{fill:#2f4056;}.cls-5{fill:#7c878e;}</style><linearGradient id="Gradiente_sem_nome_33" x1="500" y1="158.72" x2="500" y2="629.77" gradientUnits="userSpaceOnUse"><stop offset="0" stop-color="#efd5ab"/><stop offset="0.43" stop-color="#fcc761"/><stop offset="0.58" stop-color="#f9c360"/><stop offset="0.71" stop-color="#f2b85e"/><stop offset="0.85" stop-color="#e5a65b"/><stop offset="0.98" stop-color="#d38c56"/><stop offset="1" stop-color="#cf8655"/></linearGradient><linearGradient id="Gradiente_sem_nome_33-2" x1="502.25" y1="193.28" x2="502.25" y2="550.64" xlink:href="#Gradiente_sem_nome_33"/></defs><g id="BG"><path class="cls-1" d="M615,174.05l-15.26-18,.34-.48c7.33,1.76,14.67,3.5,22,5.29a3,3,0,0,1,1.46.83c5,5.81,9.9,11.64,15.33,18.06Zm-230,0,15.19-18-.41-.48-22.83,5.45L361.1,179.7ZM352.7,536c1.86,1.28,3.29,3.17,5,4.73,2.24,2.07,4.53,4.09,7.26,6.54-1.45-8.23-2.78-15.76-4.15-23.5-4.78-4.62-10.36-8.65-15-13.74l-.64.32c.94,5.65,2,11.29,2.76,17C348.38,530.86,349.57,533.79,352.7,536Zm368.73-247.6c2.12-7.07,3.65-14,5.21-20.9a3.13,3.13,0,0,0-.06-2q-4.35-9-8.73-18.07l-.56.11-4.89,22.45ZM430.46,562c-6.22-2.27-12.45-4.52-19.28-7l12.43,20.1L444,582.41c-4.22-6.83-8-12.88-11.7-18.95A3.34,3.34,0,0,0,430.46,562Zm-29.17,22.33,0,.62L420.75,592l22.43-7.45-20.26-7.38Zm-5.39-18.13-23.27,4.12,18.93,10.26,23.28-4.09ZM695.71,213.53,682,197v23c4.72,5.47,8.82,11,13.7,16.21Zm-19.18.78-15.46-14c-7.72-.33-15.25-1.29-23.4-1.33l15.85,14.26,22.75,1.55ZM389.14,561.63l.49-.32-6.95-21.76-17.32-11.46c2.52,7.41,3.92,15,6.78,22.12Zm26.69,12.72c-3.1-7.24-5.86-13.64-8.57-20.06a3.74,3.74,0,0,0-1.69-2.08c-5.73-2.86-11.12-6.37-17-8.86l0,0,0,0h0c-.69.45-.19,1,0,1.43q4.2,9.78,8.46,19.57ZM332.52,521.2c-3.54-5.46-8.27-8.69-14.86-9a11,11,0,0,1-1.68-.39l-12.5-2.58,13.63,16.59,22.43,4.75C337.23,526.81,334.51,524.26,332.52,521.2Zm14.9,13.49c-7.55-.75-15-1.55-22.71-1.08l15.08,13.67,23.48,1.63C357.85,543.41,352.39,539.24,347.42,534.69Zm325.91-20.54-13,15.69.45.63,21.93-4.67L695.89,510c-.07-.22-.15-.44-.22-.66ZM658.6,528.51c4.39-5.25,8.77-10.51,13.42-16.1v-23l-13.39,16.15A183.66,183.66,0,0,0,658.6,528.51ZM340.46,504.77c-3.75-5.29-8.22-10-12.46-15.32v22.89c4.34,5.7,9,10.67,13.9,16.53-.4-7.09-.6-13.27-.58-19.47C341.33,507.84,341.5,506.23,340.46,504.77Zm47.33,58.55-17.05-11.44L348,553.62l-.12.57L365,565.75l22.7-1.77C387.76,563.76,387.78,563.54,387.79,563.32ZM658,217.5l13.14,15.88,21.94,4.67.49-.63-13-15.76L658.3,217Zm-296.37-18-.21-.6-22.76,1.52-15.84,14.48,23.53-1.59Zm296.69-7.54c-2.62-8.14-5-15.53-7.31-22.67l-17.88-11.91L640.45,180ZM691.29,491.5c-3.7,5.76-7.88,11.14-11.76,17.75l22.31-7.07L713.48,485l-.33-.47Zm19.12-230q1.35-11.26,2.69-22.51l-10.79-17.65-.57.31L699,244.14l10.77,17.64ZM341.13,176.22l-.62-.13-15.27,13.84-3.93,23.32,16-14.45Q339.22,187.53,341.13,176.22Zm336.58,36.19.72-.3-3.8-22.33L659.28,176l-.47.39q1.89,11.19,3.79,22.38ZM731,383.29c-.35,7-.7,13.82-1.05,20.64l.57.22,15-17.06,1.11-20.62-.58-.39ZM675.43,237.8l10.76,17.65,21.32,8c.13-.17.27-.33.4-.49l-10.76-17.69-21.35-7.89Zm53.26,78.95h.66q4.06-10.54,8.1-21.09c-2.07-6.64-4.12-13.2-6.17-19.76l-.67.08c-2.74,7.17-5.47,14.34-8.09,21.2C724.66,304,726.68,310.36,728.69,316.75ZM656,193.81c.09-.22.17-.44.26-.67l-17-11.46-22.56,1.74A197.23,197.23,0,0,0,632.71,195a3.65,3.65,0,0,0,2.32.5ZM310.37,490.26c3.93,5.77,7.76,11.4,11.58,17l.61-.21c.56-7.64,1.11-15.28,1.65-22.67l-12.13-17.8C311.47,475.05,310.91,482.7,310.37,490.26Zm400.71-30.79A86.45,86.45,0,0,0,721.3,454c9.55-5.65,9.58-5.63,13.32-16.11,1.13-3.16,2.61-6.21,3.51-10l-20,12.26C715.75,446.68,713.41,453.07,711.08,459.47Zm-6.59,6.13c-1.69-7.66-3.32-15-5.12-23.14-3.39,7-6.42,13.25-9.43,19.43L695.07,485C698.44,478,701.44,471.86,704.49,465.6ZM585.87,576c0,.21.07.41.11.62l21,3.67a3.08,3.08,0,0,0,2-.16c5.88-3.14,11.75-6.3,18.28-9.81L604,566.18ZM359.52,179.93c2.31-7.19,4.66-14.52,7-21.84l-.52-.28L348.81,169.4c-2.35,7.36-4.6,14.4-6.86,21.45l.57.4Zm293.11,354.5c-5.47,4.42-10.39,9.32-15.77,14.45l23.28-1.6,15.22-13.82c-.09-.21-.17-.42-.25-.63Zm78-159.39q-.49-9.42-1-18.83a5.92,5.92,0,0,0-1.68-3.66c-4-4.48-7.84-9-11.81-13.48-.5-.57-.78-1.78-2.06-1.3.34,6.9.67,13.77,1,20.46,5.08,5.8,10,11.41,14.87,17Zm-429.74-131q-1.37-11.22-2.74-22.45l-.66-.13-10.74,17.6c1,7.58,1.89,15.1,2.93,23.42Zm81.57-59.74c-.53-.41-.86-.89-1.24-.92-6.85-.64-13.71-1.22-20.5-1.81l-17.81,12c5,.44,9.28.5,13.42,1.23,7,1.24,13.05,0,18.39-4.84C377.08,187.93,380.16,186.71,382.49,184.34Zm324,282.13c-2.73,6-6,11.79-8.47,18-.4.22-.6.51-.23,1l.75-.35h0l19.82-9.42q4.47-9.29,9-18.63l-.49-.44ZM635.19,546.4l.6.17L651,532.81c1.3-7.71,2.56-15.23,4-23.47L638.9,523.93C637.65,531.49,636.42,539,635.19,546.4Zm65-261.35c4,6.22,4.52,13.68,7.38,20.15l19.29,13.17c-2.29-7.34-4.35-14-6.41-20.61-5.94-4.09-11.82-8.12-17.69-12.18C701.89,285,701.06,284.48,700.19,285.05Zm-421.57,3.14,8.93-18.53c-1.71-7.67-3.33-14.88-4.94-22.1l-.61-.05c-3,6.16-6,12.32-9,18.58,1.72,7.6,3.36,14.86,5,22.13ZM709,458.74c2.37-6.47,4.74-12.95,7.13-19.5q-3.54-10.73-7.12-21.52l-.64.07c-2.35,6.46-4.71,12.92-7,19.32,2.38,7.33,4.72,14.52,7.06,21.7ZM576.3,575.06l12-19.33-.42-.44-19.4,7c-4.15,6.62-8.15,13-12.16,19.39l.56.44Zm111-107.6-11.54,17c.57,7.65,1.14,15.19,1.7,22.73l.64.05,11.51-17c-.57-7.63-1.13-15.17-1.7-22.7ZM628,550.07c2.41-7.55,4.65-14.6,6.89-21.65l-.56-.3-17,11.39c-2.37,7.38-4.68,14.55-7,21.72l.46.37Zm94.26-117.68.5.29,17.37-14.62c1.44-7,2.81-13.7,4.36-21.21L726.34,412.1C725,419,723.6,425.69,722.25,432.39ZM265.57,423c4,2.81,7.57,6.22,11.34,9.37l.68-.51c-1.33-6.51-2.66-13-4-19.83l-17.36-14.62c.35,4.73,1.64,9.06,2.1,13.47A15.91,15.91,0,0,0,265.57,423Zm458.66-11.43c-3.48-6.94-6.87-13.66-10.6-21.08-1.56,7.48-3,14.17-4.4,21.13,3.39,6.71,6.87,13.58,10.67,21.11C721.47,425.08,722.87,418.27,724.23,411.59Zm-420-175.14,13.59-16.28V197.11c-3,3.53-5.44,7.12-8.54,10.08-4.18,4-5.51,8.64-5.11,14.25C304.53,226.18,304.26,231,304.26,236.45ZM611.36,563.9l23.54,1.85,17.88-12.09-23.7-1.74ZM727.72,403.76c.31-6.08.58-12.17.94-18.25a6.33,6.33,0,0,0-1.3-4.46c-2.74-3.69-5.33-7.48-8-11.21a33.61,33.61,0,0,0-4.23-5.46c-.39,7.45-.75,14.3-1.11,21.05l13.12,18.62ZM266.81,345.48q2.06-10.11,4.11-20.19c-3.45-6.84-6.85-13.57-10.62-21.06-1.56,7.56-2.95,14.25-4.38,21.16,3.5,6.88,6.92,13.58,10.33,20.29Zm289.92,239c6.5,2.17,12.31,4,18,6.07,3.09,1.16,5.89,1.34,8.9-.14,2-1,4.35-1.48,6.47-2.36,2.88-1.2,6-1.94,9-3.62L577,577.15Zm-236.6-76-11.55-17L287,484.63l-.51.43,11.59,17.12,21.74,6.87ZM269,346l.54.25,17.33-14.61,4.1-20.29-.57-.27-17.28,14.55C271.69,332.52,270.33,339.27,269,346Zm-1.88,28.65c.34-6.77.69-13.53,1-20.36l-13.18-18.48-.6.25q-.5,10.29-1,20.62c4.39,6.14,8.75,12.21,13.1,18.29Zm4.18-57.94c2-6.43,4-12.85,6.14-19.59l-8.2-21.27-.63.16c-2,6.56-4.07,13.12-6.07,19.58l8.12,21.17ZM326,233.94c1.2-.26,2.55-.19,3.46-1.3q6.21-7.56,12.43-15.09l-.48-.58-22,4.73-13.06,15.83C313.12,236.69,319.54,235.34,326,233.94ZM299,284.33l-19.54,13.42-6,19.51.58.44L292.6,305C294.68,298.29,296.72,291.69,299,284.33ZM270,403.65c-.34-6.81-.69-13.63-1-20.4l-15-17.19-.58.3c.36,6.87.72,13.74,1.09,20.76L269.32,404Zm456.95-77.78c-5.67-4.93-11.33-9.88-17.25-14.52l-.61.36c1.32,6.58,2.65,13.16,4,19.9l17.2,14.53.64-.39C729.6,339.26,728.3,332.78,726.92,325.87ZM611.09,542.8c-5.5,3.84-11.81,6.51-17.76,10.05l-8.91,20.7c.51.13.77.28.91.21,5.46-2.92,10.9-5.87,16.38-8.76a4.72,4.72,0,0,0,2.12-2.58c2.51-5.9,5.06-11.8,7.59-17.7C611.68,544.12,612.22,543.5,611.09,542.8ZM302.35,484.9l-8.89-18.41-20.37-9.85-.4.65,8.89,18.33,20.3,9.85Zm-10.77-26.37q3.53-10.69,7-21.36c-2.39-6.47-4.75-12.88-7.12-19.29l-.7,0-7,21.48,7.12,19.24Zm18.33,3.22c-2.89-6-6-12.26-9-18.56l-.58.23c-1.62,7.37-3.24,14.73-4.88,22.17,3.12,6.43,6.08,12.56,9.41,19.44C306.63,476.9,308.22,469.55,309.91,461.75ZM292.22,262.66l.43.62,21.11-7.85c3.29-6.05,7.5-11.54,10.82-18.27-6.46,2.4-12.09,4.75-17.9,6.53a9.34,9.34,0,0,0-5.86,4.66C298.06,253.18,295.1,257.9,292.22,262.66ZM280.55,431.89c1.85-3.7,3.37-7.61,5.61-11,4-6.1,5-12.32,2.48-19.22-.86-2.35-1.08-4.93-1.65-7.4-.21-.94.21-2.14-1.17-2.88q-5.08,10.2-10.13,20.3c1.44,6.89,2.84,13.63,4.24,20.37Zm7.85,28,.43-.47L281.73,440l-19.32-11.79-.57.41c2.43,6.39,4.84,12.78,7.29,19.16a3.06,3.06,0,0,0,2.11,2.08c1.66.3,2.89,1.33,4.25,2.14C279.82,454.61,284.1,457.25,288.4,459.87ZM729.33,327c1.19,5.7,2.36,11.4,3.6,17.39a12.08,12.08,0,0,0,2.36-2.31c3-5.44,5.79-10.95,8.74-16.59-1.45-7-2.83-13.72-4.39-21.26-3.65,7.21-6.9,13.64-10.15,20.08A4,4,0,0,0,729.33,327ZM270.21,375c4.88-5.61,9.77-11.21,14.58-16.72.21-7.07,1-13.92.82-21.37-5.45,6.27-10.48,12.06-15.29,17.58-.22,7.08-1,13.68-.79,20.3Zm14.69,12a5.81,5.81,0,0,0,.86-3.91c-.33-6.06-.6-12.13-.89-18.19l-.65-.19L271,383.32c.87,6.87.49,13.66,1.55,21Zm446.93-32.37c.35,6.66.71,13.55,1.11,21.25l13.72-19.27q-.54-9.1-1.1-18.21C742.43,338.58,740.92,340.38,731.83,354.58ZM405.14,155.52a227.56,227.56,0,0,1,52.46-16v-4.15A230,230,0,0,0,402.85,152,7.73,7.73,0,0,0,405.14,155.52Zm192.13-3.38a225.51,225.51,0,0,0-54.65-16.69,4.55,4.55,0,0,0-.09,4.08A231.51,231.51,0,0,1,595,155.6ZM718.56,289.47c.25.16.5.29.78,0s0-.51-.33-.62c-1.39-3.91-3.75-7.38-5.14-11.26a16.59,16.59,0,0,0-10.45-10.47c-4.65-1.77-9-4.28-13.51-6.45-.13.14-.27.28-.4.43q4.54,9.36,9.08,18.72ZM388.07,543c-.05.42,0,.62.45.34A.35.35,0,0,0,388.07,543ZM310.22,260.87c-.35-.2-.52,0-.67.29-6.85,2.9-13.42,6.37-20.11,9.6-3,6.26-5.94,12.44-8.9,18.62l.57.31,20.3-9.88,8.74-18.12h0A.66.66,0,0,0,310.22,260.87Z" transform="translate(-253.34 -135.36)"/><path class="cls-2" d="M551.8,578.61c2.26-3.84,4.69-7.58,7.05-11.36-.15-.19-.3-.39-.46-.58a212.14,212.14,0,0,1-58.51,8.13,218.13,218.13,0,0,1-59.27-8.34c2.72,4.4,5,8,7.18,11.61,3.2,5.25,1.38,10.17-4.5,12.22-3.2,1.11-6.41,2.2-9.61,3.3a221.43,221.43,0,0,0,66.23,9.78,227.5,227.5,0,0,0,66.33-9.54c-3.37-1.39-6.73-2.46-10.07-3.61C551,588.45,549,583.31,551.8,578.61Z" transform="translate(-253.34 -135.36)"/></g><path class="cls-3" d="M596.2,372.13h84.45c-5.11,15.75-21.93,30.34-43.53,29.79C617.61,401.42,601.19,387.87,596.2,372.13Zm-.32-20.23H603l35.38-75.16c12,25.43,23.76,50.33,35.48,75.13h7.1c-14.2-30.08-28.3-60-42.59-90.22Zm.13,13.59h84.74v-6.41H595.9A52.57,52.57,0,0,0,596,365.49ZM364.83,403.14c21.59.56,38.42-14,43.52-29.79H323.91C328.89,389.09,345.31,402.64,364.83,403.14Zm-41.24-50h7.09L366.06,278l35.47,75.12h7.1l-42.58-90.21Zm.13,13.6h84.74v-6.41H323.61A50.7,50.7,0,0,0,323.72,366.72Zm236.61-93.19H514.2C541,252.78,586.32,262.74,631,256.92l11.48-1.44L654,239.71c-13.4,6.82-32.92,6.34-57.36,0-30.49-14.29-59.15-16.37-84.62,2.86,6.39-25.88,2.73-41.82-8.6-50.19l-.29,81.15h-.86l-.29-81.15c-11.33,8.37-15,24.31-8.6,50.19-25.47-19.23-54.13-17.15-84.62-2.86-24.44,6.34-44,6.82-57.36,0l11.47,15.77,11.47,1.44c44.7,5.82,90-4.14,116.82,16.61H445a30.82,30.82,0,0,0-30.92,30c-.17,8.76,2,17.17,5.42,22.7,8.84,14.26,29.15,16.07,41.78,6s9.37-29.11-.63-33A17.83,17.83,0,0,0,443,301.69c17.82-7.75,25.63,14.26,12.28,24.18-13,9.66-31.32-1.08-30.51-19.31,0-.32,0-.63,0-.94a22.37,22.37,0,0,1,22.47-21.44H558.11a22.36,22.36,0,0,1,22.47,21.44c0,.31,0,.62,0,.94.81,18.23-17.51,29-30.5,19.31-13.36-9.92-5.54-31.93,12.27-24.18a17.83,17.83,0,0,0-17.69-2.53c-10,3.92-13.26,22.92-.63,33s32.94,8.3,41.78-6c3.44-5.53,5.6-13.94,5.42-22.7A30.81,30.81,0,0,0,560.33,273.53Zm-57.61,25.81h31.22l10.29-11.1H461.11l10.29,11.1h31.32Zm28.12,46.89H542.5a3.23,3.23,0,0,0,1.94-5.82c-19.75-15-10.5-37.77-10.5-37.77H471.4s9.25,22.78-10.49,37.77a3.23,3.23,0,0,0,1.93,5.82h11.64c-3.64,28.06-13.4,50.12-29.9,65.57,21.22,27.88,36.83,71,45.89,131.94h7.17V420.41c-9.32-3.59-12.19-22.23,5-23.67l-.18-50.51h.36l-.18,50.51c17.21,1.44,14.34,20.08,5,23.67V543.74h7.17c9.06-60.95,24.67-104.06,45.89-131.94C544.24,396.35,534.48,374.29,530.84,346.23Z" transform="translate(-253.34 -135.36)"/><path class="cls-4" d="M327.33,731.49h-11.1l-1.9-12.7H300.82l-1.9,12.7h-10.1l11.2-70h16.11Zm-25.11-22.2h10.61l-5.31-35.41Z" transform="translate(-253.34 -135.36)"/><path class="cls-4" d="M347.92,661.48h17.4c11,0,16.41,6.1,16.41,17.3v35.41c0,11.2-5.4,17.3-16.41,17.3h-17.4Zm11,10v50h6.2c3.5,0,5.61-1.8,5.61-6.8V678.28c0-5-2.11-6.8-5.61-6.8Z" transform="translate(-253.34 -135.36)"/><path class="cls-4" d="M420.82,718.59l8.4-57.11h10.1l-10.8,70h-16.4l-10.8-70h11.1Z" transform="translate(-253.34 -135.36)"/><path class="cls-4" d="M459,678.28c0-11.2,5.9-17.6,16.7-17.6s16.7,6.4,16.7,17.6v36.41c0,11.2-5.9,17.6-16.7,17.6s-16.7-6.4-16.7-17.6Zm11,37.11c0,5,2.2,6.9,5.7,6.9s5.7-1.9,5.7-6.9V677.58c0-5-2.2-6.9-5.7-6.9s-5.7,1.9-5.7,6.9Z" transform="translate(-253.34 -135.36)"/><path class="cls-4" d="M531.52,692.49h15.4v22.2c0,11.2-5.6,17.6-16.4,17.6s-16.4-6.4-16.4-17.6V678.28c0-11.2,5.6-17.6,16.4-17.6s16.4,6.4,16.4,17.6v6.8h-10.4v-7.5c0-5-2.2-6.9-5.7-6.9s-5.7,1.9-5.7,6.9v37.81c0,5,2.2,6.8,5.7,6.8s5.7-1.8,5.7-6.8v-12.9h-5Z" transform="translate(-253.34 -135.36)"/><path class="cls-4" d="M605.12,731.49H594l-1.9-12.7h-13.5l-1.9,12.7h-10.1l11.2-70h16.1ZM580,709.29h10.6l-5.3-35.41Z" transform="translate(-253.34 -135.36)"/><path class="cls-4" d="M625.72,661.48h17.4c11,0,16.4,6.1,16.4,17.3v35.41c0,11.2-5.4,17.3-16.4,17.3h-17.4Zm11,10v50h6.2c3.5,0,5.6-1.8,5.6-6.8V678.28c0-5-2.1-6.8-5.6-6.8Z" transform="translate(-253.34 -135.36)"/><path class="cls-4" d="M681.12,678.28c0-11.2,5.9-17.6,16.7-17.6s16.7,6.4,16.7,17.6v36.41c0,11.2-5.9,17.6-16.7,17.6s-16.7-6.4-16.7-17.6Zm11,37.11c0,5,2.2,6.9,5.7,6.9s5.7-1.9,5.7-6.9V677.58c0-5-2.2-6.9-5.7-6.9s-5.7,1.9-5.7,6.9Z" transform="translate(-253.34 -135.36)"/><path class="cls-5" d="M326.68,822.78V833c0,12.32-6.16,19.36-18,19.36s-18-7-18-19.36V793c0-12.32,6.16-19.36,18-19.36s18,7,18,19.36v7.48H315.24V792.2c0-5.5-2.42-7.59-6.27-7.59s-6.27,2.09-6.27,7.59v41.58c0,5.5,2.42,7.48,6.27,7.48s6.27-2,6.27-7.48v-11Z" transform="translate(-253.34 -135.36)"/><path class="cls-5" d="M333.06,793c0-12.32,6.48-19.36,18.37-19.36s18.37,7,18.37,19.36v40c0,12.32-6.49,19.36-18.37,19.36s-18.37-7-18.37-19.36Zm12.1,40.81c0,5.5,2.42,7.59,6.27,7.59s6.27-2.09,6.27-7.59V792.2c0-5.5-2.42-7.59-6.27-7.59s-6.27,2.09-6.27,7.59Z" transform="translate(-253.34 -135.36)"/><path class="cls-5" d="M388.38,795.72v55.77H377.49v-77h15.18l12.43,46.09V774.49h10.78v77H403.45Z" transform="translate(-253.34 -135.36)"/><path class="cls-5" d="M440.85,773.61c11.77,0,17.82,7,17.82,19.36v2.42H447.23V792.2c0-5.5-2.2-7.59-6.05-7.59s-6.05,2.09-6.05,7.59c0,15.84,23.65,18.81,23.65,40.81,0,12.32-6.16,19.36-18,19.36s-18-7-18-19.36v-4.73h11.44v5.5c0,5.5,2.42,7.48,6.27,7.48s6.27-2,6.27-7.48C446.68,817.94,423,815,423,793,423,780.65,429.08,773.61,440.85,773.61Z" transform="translate(-253.34 -135.36)"/><path class="cls-5" d="M477.26,774.49v59.4c0,5.5,2.42,7.48,6.27,7.48s6.27-2,6.27-7.48v-59.4h11.44v58.63c0,12.32-6.16,19.36-18,19.36s-18-7-18-19.36V774.49Z" transform="translate(-253.34 -135.36)"/><path class="cls-5" d="M535.12,829.16l8.25-54.67H560.2v77H548.76V796.27l-8.36,55.22H529l-9-54.45v54.45H509.38v-77h16.83Z" transform="translate(-253.34 -135.36)"/><path class="cls-5" d="M569,774.49h12.1v77H569Z" transform="translate(-253.34 -135.36)"/><path class="cls-5" d="M589.9,774.49H609c12.1,0,18,6.71,18,19v38.94c0,12.32-5.94,19-18,19H589.9Zm12.1,11v55h6.82c3.85,0,6.16-2,6.16-7.48V793c0-5.5-2.31-7.48-6.16-7.48Z" transform="translate(-253.34 -135.36)"/><path class="cls-5" d="M633.79,793c0-12.32,6.49-19.36,18.37-19.36s18.37,7,18.37,19.36v40c0,12.32-6.49,19.36-18.37,19.36s-18.37-7-18.37-19.36Zm12.1,40.81c0,5.5,2.42,7.59,6.27,7.59s6.27-2.09,6.27-7.59V792.2c0-5.5-2.42-7.59-6.27-7.59s-6.27,2.09-6.27,7.59Z" transform="translate(-253.34 -135.36)"/><path class="cls-5" d="M703.64,851.49c-.66-2-1.1-3.19-1.1-9.46v-12.1c0-7.15-2.42-9.79-7.92-9.79h-4.18v31.35h-12.1v-77H696.6c12.54,0,17.93,5.83,17.93,17.71v6c0,7.92-2.53,13.09-7.92,15.62,6,2.53,8,8.36,8,16.39v11.88c0,3.74.11,6.49,1.32,9.35Zm-13.2-66v23.65h4.73c4.51,0,7.26-2,7.26-8.14v-7.59c0-5.5-1.87-7.92-6.16-7.92Z" transform="translate(-253.34 -135.36)"/><rect class="cls-2" x="35.49" y="616.96" width="427.13" height="2.14"/></svg>